<svg height="27" viewBox="0 0 24 27" width="24" xmlns="http://www.w3.org/2000/svg"><path fill="rgba(51, 51, 51, 0.4)" d="m23.504464 21.891741c0 1.305804-.440848 2.399554-1.322544 3.28125-.881697.881697-1.975447 1.322545-3.28125 1.322545-1.506697 0-2.818081-.558036-3.934152-1.674107l-13.007813-12.991072c-1.26116-1.283482-1.891741-2.795759-1.891741-4.53683 0-1.774554.61384-3.28125 1.841518-4.520089 1.227679-1.23884 2.728795-1.858259 4.503348-1.858259 1.763393 0 3.286831.63058 4.570313 1.891741l10.128348 10.145089c.111607.111607.167411.234375.167411.368303 0 .178572-.170201.438059-.510603.77846-.340402.340402-.599888.510603-.77846.510603-.145089 0-.273437-.055804-.385044-.167411l-10.14509-10.16183c-.881696-.859375-1.891741-1.289063-3.030134-1.289063-1.183035 0-2.181919.418527-2.996651 1.255581-.814732.837053-1.222099 1.847098-1.222099 3.030134 0 1.171875.424108 2.181919 1.272322 3.030134l12.991071 13.007812c.703125.703125 1.512277 1.054688 2.427456 1.054688.714285 0 1.305803-.234375 1.774553-.703125s.703125-1.060268.703125-1.774554c0-.915179-.351562-1.72433-1.054687-2.427455l-9.726563-9.726563c-.290178-.267857-.625-.401785-1.004464-.401785-.323661 0-.591518.106026-.803572.31808-.212053.212053-.31808.479911-.31808.803571 0 .357143.139509.686384.418527.987723l6.863839 6.86384c.111607.111607.167411.234375.167411.368303 0 .178572-.172991.440849-.518973.786831s-.608259.518973-.786831.518973c-.133928 0-.256696-.055804-.368303-.167411l-6.86384-6.863839c-.703124-.680804-1.054687-1.512277-1.054687-2.49442 0-.915178.31808-1.690848.954241-2.327009.636161-.63616 1.41183-.954241 2.327009-.954241.982143 0 1.813616.351563 2.49442 1.054688l9.726562 9.726562c1.116072 1.09375 1.674107 2.405134 1.674107 3.934152z" transform="matrix(-1 0 0 1 24 0)"/></svg>
