<svg xmlns="http://www.w3.org/2000/svg" viewBox="0 0 48 48"><title>icon5</title><g id="Layer_2" data-name="Layer 2"><g id="Capa_1" data-name="Capa 1"><path d="M39.47,22.69h7.12V25.5H39.47Z" fill="#32393f"/><path d="M1.41,22.69H31V25.5H1.41Z" fill="#474f54"/><path d="M24,22.69h7V25.5H24Z" fill="#32393f"/><path d="M1.41,11.44H8.53v2.81H1.41Z" fill="#474f54"/><path d="M22.59,11.44h24v2.81h-24Z" fill="#32393f"/><path d="M1.41,33.94H8.53v2.81H1.41Z" fill="#474f54"/><path d="M22.59,33.94h24v2.81h-24Z" fill="#32393f"/><path d="M0,0V48H48V0ZM45.19,45.19H2.81V2.81H45.19Z" fill="#575f64"/><path d="M48,0V48H24V45.19H45.19V2.81H24V0Z" fill="#474f54"/><path d="M12.75,10v5.63a2.82,2.82,0,0,1-5.63,0V10a2.82,2.82,0,0,1,5.63,0Z" fill="#ffda2d"/><path d="M12.75,10v5.63a2.81,2.81,0,0,1-2.81,2.81V7.22A2.81,2.81,0,0,1,12.75,10Z" fill="#fdbf00"/><path d="M18.38,10v5.63a2.82,2.82,0,0,1-5.63,0V10a2.82,2.82,0,0,1,5.63,0Z" fill="#ffda2d"/><path d="M24,10v5.63a2.81,2.81,0,1,1-5.62,0V10A2.81,2.81,0,1,1,24,10Z" fill="#ffda2d"/><path d="M18.38,10v5.63a2.82,2.82,0,0,1-2.82,2.81V7.22A2.82,2.82,0,0,1,18.38,10Z" fill="#fdbf00"/><path d="M24,10v5.63a2.81,2.81,0,0,1-2.81,2.81V7.22A2.81,2.81,0,0,1,24,10Z" fill="#fdbf00"/><path d="M35.25,21.28v5.63a2.82,2.82,0,0,1-5.63,0V21.28a2.82,2.82,0,0,1,5.63,0Z" fill="#ff7c48"/><path d="M40.88,21.28v5.63a2.82,2.82,0,0,1-5.63,0V21.28a2.82,2.82,0,0,1,5.63,0Z" fill="#ff7c48"/><path d="M35.25,21.28v5.63a2.81,2.81,0,0,1-2.81,2.81V18.47A2.81,2.81,0,0,1,35.25,21.28Z" fill="#ff415b"/><path d="M40.88,21.28v5.63a2.82,2.82,0,0,1-2.82,2.81V18.47A2.82,2.82,0,0,1,40.88,21.28Z" fill="#ff415b"/><path d="M12.75,32.53v5.63a2.82,2.82,0,0,1-5.63,0V32.53a2.82,2.82,0,0,1,5.63,0Z" fill="#7fe881"/><path d="M12.75,32.53v5.63A2.81,2.81,0,0,1,9.94,41V29.72A2.81,2.81,0,0,1,12.75,32.53Z" fill="#5bc980"/><path d="M18.38,32.53v5.63a2.82,2.82,0,0,1-5.63,0V32.53a2.82,2.82,0,0,1,5.63,0Z" fill="#7fe881"/><path d="M24,32.53v5.63a2.81,2.81,0,1,1-5.62,0V32.53a2.81,2.81,0,1,1,5.62,0Z" fill="#7fe881"/><path d="M18.38,32.53v5.63A2.82,2.82,0,0,1,15.56,41V29.72A2.82,2.82,0,0,1,18.38,32.53Z" fill="#5bc980"/><path d="M24,32.53v5.63A2.81,2.81,0,0,1,21.19,41V29.72A2.81,2.81,0,0,1,24,32.53Z" fill="#5bc980"/></g></g></svg>