<svg xmlns="http://www.w3.org/2000/svg" viewBox="0 0 48 48"><title>icon4</title><g id="Layer_2" data-name="Layer 2"><g id="Capa_1" data-name="Capa 1"><path d="M48,0V29.53a1.41,1.41,0,0,1-1.41,1.41H1.41A1.41,1.41,0,0,1,0,29.53V0Z" fill="#b5fb4a"/><path d="M48,0V29.53a1.41,1.41,0,0,1-1.41,1.41H24V0Z" fill="#7fe881"/><path d="M24,11.9,14.16,25l-.25.32L4.31,11.9l9.85-6.56Z" fill="#ffda2d"/><path d="M24,11.9,14.16,25V5.34Z" fill="#fdbf00"/><path d="M28.22,11.25H42.28v2.81H28.22Z" fill="#ede0da"/><path d="M28.22,16.88H42.28v2.81H28.22Z" fill="#ede0da"/><path d="M28.22,22.5H42.28v2.81H28.22Z" fill="#ede0da"/><path d="M24,11.9V25.31L17.77,22.5l-3.61-3.89Z" fill="#dfd1cc"/><path d="M24,25.31H4.31V11.9l9.85,6.71Z" fill="#f5efeb"/><path d="M24,25.31H14.16v-6.7Z" fill="#ede0da"/><path d="M17,35.16H31V46.59H17Z" fill="#ede0da"/><path d="M24,35.16h7V46.59H24Z" fill="#dfd1cc"/><path d="M0,29.53H48v7H0Z" fill="#575f64"/><path d="M24,29.53H48v7H24Z" fill="#474f54"/><path d="M11.34,45.19H36.66V48H11.34Z" fill="#575f64"/><path d="M24,45.19H36.66V48H24Z" fill="#474f54"/></g></g></svg>