<svg xmlns="http://www.w3.org/2000/svg" viewBox="0 0 36.56 48"><title>icon2</title><g id="Layer_2" data-name="Layer 2"><g id="Capa_1" data-name="Capa 1"><path d="M33.75,45.19V48H7a7,7,0,0,1-7-7V4.22L4.22,0,7,2.81,9.84,0l2.82,2.81L15.47,0l2.81,2.81L21.09,0l2.82,2.81L26.72,0l4.22,4.22V36.75l1.4.53v6.28Z" fill="#f5efeb"/><path d="M33.75,45.19V48H15.47V0l2.81,2.81L21.09,0l2.82,2.81L26.72,0l4.22,4.22V36.75l1.4.53v6.28Z" fill="#ede0da"/><path d="M5.62,11.44H25.31v2.81H5.62Z" fill="#575f64"/><path d="M5.62,33.94H25.31v2.81H5.62Z" fill="#575f64"/><path d="M8.44,17.06h7v2.81h-7Z" fill="#575f64"/><path d="M18.28,17.06h2.81v2.81H18.28Z" fill="#474f54"/><path d="M8.44,22.69h7V25.5h-7Z" fill="#575f64"/><path d="M18.28,22.69h2.81V25.5H18.28Z" fill="#474f54"/><path d="M8.44,28.31h7v2.81h-7Z" fill="#575f64"/><path d="M18.28,28.31h2.81v2.81H18.28Z" fill="#474f54"/><path d="M30.94,45.19V36.75h5.62v8.44a2.81,2.81,0,0,1-5.62,0Z" fill="#dfd1cc"/><path d="M15.47,11.44h9.84v2.81H15.47Z" fill="#474f54"/><path d="M15.47,33.94h9.84v2.81H15.47Z" fill="#474f54"/></g></g></svg>