<svg viewBox="0 0 49.25 48" xmlns="http://www.w3.org/2000/svg"><g fill-rule="evenodd"><path d="m23.89 26.23a4.39 4.39 0 1 1 -4.48 4.39 4.43 4.43 0 0 1 4.48-4.39z" fill="#1b1918"/><path d="m20.28 30.57a3.73 3.73 0 1 0 3.72-3.73 3.73 3.73 0 0 0 -3.72 3.73zm.23 0a3.5 3.5 0 1 0 3.5-3.5 3.51 3.51 0 0 0 -3.5 3.5z" fill="#fff"/><path d="m29.39 30.57a5.38 5.38 0 1 1 -8.47-4.39 4.85 4.85 0 0 1 .83-.48l.18-.08a5.49 5.49 0 0 1 3.07-.32 5.42 5.42 0 0 1 3 1.76l.11.13a5.2 5.2 0 0 1 .59.88 4.91 4.91 0 0 1 .3.7 4.84 4.84 0 0 1 .35 1.23 5.12 5.12 0 0 1 0 .56zm-9.26 0a3.88 3.88 0 1 1 3.87 3.87 3.88 3.88 0 0 1 -3.87-3.87z" fill="#ffcb00"/><g fill="#fff"><path d="m8.79 46.88c-.34-.17-.44.79.21 1.12-.24-.5.47-.8-.21-1.12z"/><path d="m7.73 45.92c-.28-.14-.37.64.16.91-.19-.41.39-.65-.16-.91z"/><path d="m8.22 46.25c-.3-.14-.38.68.17 1-.2-.47.41-.72-.17-1z"/><path d="m2.4 34c-.12.26.61.32.84-.18-.37.18-.61-.38-.84.18z"/><path d="m1.83 34.46c-.13.29.69.36 1-.2-.47.21-.74-.39-1 .2z"/><path d="m1.29 34.92c-.13.28.65.34.91-.19-.41.2-.66-.37-.91.19z"/><path d="m27.53 42.43c-.26-.13-.33.6.16.84-.18-.38.36-.6-.16-.84z"/><path d="m26.63 41.31c-.28-.13-.37.64.16.91-.19-.41.39-.65-.16-.91z"/><path d="m27.09 41.8c-.29-.14-.38.68.18 1-.2-.47.4-.73-.18-1z"/><path d="m37.14 47c-.26-.12-.34.6.15.85-.18-.34.36-.57-.15-.85z"/><path d="m36 45.78c-.3-.14-.39.67.17.95-.17-.42.43-.68-.17-.95z"/><path d="m36.53 46.34c-.29-.14-.38.68.18 1-.2-.47.4-.73-.18-1z"/><path d="m27 41.67c.13-.05.29 0 .42.23a1.88 1.88 0 0 1 1.83-.82 2.06 2.06 0 0 0 -1.87 1.21.37.37 0 0 1 .46.29 4.33 4.33 0 0 0 .72.29 6.73 6.73 0 0 0 2-.24c.6-.15 1.29 0 1.87-.57s.39-.69.64-.86l.24-.16a.66.66 0 0 0 .62.38c.5 0 .48-.07.48-.07s-.48-.11-.14-.92 3.15-2.5 4.17-3.07.69-.18.89-.86-.07-.77 0-1.49a6.47 6.47 0 0 1 1-2.5 10.45 10.45 0 0 1 -1.08-2.41 2.26 2.26 0 0 0 -2.48-2 4.38 4.38 0 0 0 -2.38.84v.05a10 10 0 0 0 .58 2.14 8.75 8.75 0 0 1 1 3.48 2.85 2.85 0 0 1 -.97 1.8c-.4.38-2 2.23-2.72 2.78s-.8 1-2.05.71c-.44-.27-3.92-.49-3.66 1.32.11-.1.33.07.36.18a1.43 1.43 0 0 1 1.59-1 1.43 1.43 0 0 0 -1.52 1.27z"/><path d="m29.54 30.57a5.53 5.53 0 0 1 -1.4 3.68c2.69-1.69 5.49-6.51 8.82-6.54a2.35 2.35 0 0 1 2.56 2.13 10.8 10.8 0 0 0 1.13 2.53l.1.18.72 1.28a24.27 24.27 0 0 1 1.41 2.61 4.41 4.41 0 0 1 .64 2 6.65 6.65 0 0 1 -.43 2.09 16.4 16.4 0 0 1 -1.6 3.2 1.24 1.24 0 0 1 -1.26.62c-.54 0-1-.19-1.57-.22a4.2 4.2 0 0 0 -1.78.45 1.91 1.91 0 0 0 -.81.78.15.15 0 0 0 0 .08.43.43 0 0 0 0 .23s.24.24.29.27c.45-.85.9-.9 1.71-.88-.72.1-1.39.31-1.61 1.14.18.07.37.14.41.32.32-.78 1.18-.77 1.82-1-.27.16-1.81.47-1.71 1.33.19 0 .49.19.46.37l.09.08a3.78 3.78 0 0 0 1.15.1 6 6 0 0 0 .93-.21 5.66 5.66 0 0 0 2.52-.87 3.26 3.26 0 0 0 .81-1.1v-.13c.26.34 1.21.15 1.38-.22-.34 0-.65.15-.73-.34v-.06c0-.44.63-1.36 1.64-2.8a13 13 0 0 0 2-3.52c0-1-1.09-1.48-1.09-2.66 0-.43.11-1.35.25-2.42a40.09 40.09 0 0 0 .42-4.07 21.43 21.43 0 0 0 -.31-3.48c0-.11-.4-.25-.42-.46s.11-.28.77-.65a4.3 4.3 0 0 0 2.38-3.34 6.71 6.71 0 0 0 -1.61-4.83 14.92 14.92 0 0 0 -5.37-3.91c-1.67-.8-4.73-2.6-5.86-4a2.64 2.64 0 0 1 -.27-3.33c.14-.27.81-1.59-.06-2.09-.67-.39-1.68.63-2.18 1.48a5.29 5.29 0 0 0 -.12 5c1.19 2.41 3.47 3.6 5.69 4.83 2.07 1.13 5.2 2.84 6 3.94s1.66 2.45.82 3.5-2.36.54-3.59-.3a9.75 9.75 0 0 0 -2.92-1.56 8.76 8.76 0 0 0 -3.42-.4 8.31 8.31 0 0 0 -3.86 1.69l-.24.19a4 4 0 0 1 -1.5.81 12 12 0 0 1 -.11 1.66c.59-1.1 1.56-.49 1.81.41-1.12-.28-1 .64-1.15 1.57a8.25 8.25 0 0 1 -.14.92 7.76 7.76 0 0 1 -1.69 3.16 5.53 5.53 0 0 1 0 .71z"/></g><path d="m13.34 5c1-.51 2.3.25 3.09.88 1.95 1.66 3.33 5.13 3.7 9.29.06.66.09 1.33.09 2a30.05 30.05 0 0 1 -.49 5.27 3.29 3.29 0 0 0 .49.26 29.8 29.8 0 0 0 .51-5.34c0-.77 0-1.51-.1-2.23-.43-4.33-1.9-7.8-4-9.51-.8-.59-2.33-1.36-3.28-.65z" fill="#ffcb00"/><path d="m18.57 5.87c-1.05-1.2-2.71-2.48-4.4-2.17a1.75 1.75 0 0 0 -1.44 1.68c1.07-1.43 2.83-.73 4 .13 2.15 1.75 3.63 5.25 4.07 9.62a27.57 27.57 0 0 1 -.41 7.64 5.72 5.72 0 0 0 1.24.28 20.21 20.21 0 0 0 -1.56-13.63c-.5-1.2-1.05-2.33-1.5-3.55z" fill="#fff"/><path d="m21.16 25.83a5.33 5.33 0 0 1 .63-.32 31.71 31.71 0 0 0 1.05-7.43 20.48 20.48 0 0 0 -2.22-8.86c-.77-1.75-1.89-3.46-1.91-5.44 0-1.52.8-3.86 2.69-3.7-1.6-.49-2.66 1.48-2.87 2.75a7.4 7.4 0 0 0 .19 3c.39 1.23 1.07 2.5 1.5 3.55a19.55 19.55 0 0 1 2 11.19v.13a41.07 41.07 0 0 1 -1 5.15z" fill="#ffcb00"/><path d="m22 25.43a6.18 6.18 0 0 1 1.23-.33 26.77 26.77 0 0 0 .88-5.83c0-.05 0-.09 0-.14a26.76 26.76 0 0 0 -1.55-8.35c-.18-.56-.3-.83-.45-1.38l-.88-1.82a9.85 9.85 0 0 1 -1.36-3.8c0-1.4.62-3.06 2.11-3.42-2.1-.71-3.07 1.72-3.1 3.42 0 2 1.14 3.64 1.9 5.37a22.43 22.43 0 0 1 2 5.71 26 26 0 0 1 -.78 10.57z" fill="#fff"/><path d="m23.38 25.08a5.12 5.12 0 0 1 .56 0 25.8 25.8 0 0 0 .82-5.85 13.92 13.92 0 0 0 -.17-2.23 34.28 34.28 0 0 0 -1.53-6.4 8.61 8.61 0 0 1 -.68-2.86c0-1.53.87-4.1 2.84-3.42-2.94-1.21-3.62 3.22-2.88 5.3l.36 1.12a27.11 27.11 0 0 1 1.56 8.46v.09a27.86 27.86 0 0 1 -.88 5.8z" fill="#ffcb00"/><path d="m24.1 25.05a5.25 5.25 0 0 1 1 .1 19.52 19.52 0 0 0 .9-5.15c0-.21 0-.42 0-.63a23.24 23.24 0 0 0 -.7-4.1 12.74 12.74 0 0 1 -.34-2.65c0-.14 0-.28 0-.41s-.14-.46-.22-.69c-.15-.47-.32-.92-.49-1.35-.63-1.64-1.39-5.27 1.44-5.43-2-1.37-3.11 1.45-3.11 3a8.21 8.21 0 0 0 .68 2.81 35.29 35.29 0 0 1 1.49 6.45 14.44 14.44 0 0 1 .18 2.26 25.79 25.79 0 0 1 -.83 5.84z" fill="#fff"/><path d="m25.24 25.18.41.11a19.41 19.41 0 0 0 .87-5.24c0-.25 0-.5 0-.75a16.53 16.53 0 0 0 -.59-3.43 14.88 14.88 0 0 1 -.57-3.45 5.41 5.41 0 0 1 .74-2.88 1.6 1.6 0 0 1 1.68-.54 1.3 1.3 0 0 0 -1.06 0c-1.29.46-1.65 2.43-1.65 3.64a11.64 11.64 0 0 0 .34 2.61 24.55 24.55 0 0 1 .7 4.13v.64a19.74 19.74 0 0 1 -.89 5.23z" fill="#ffcb00"/><path d="m25.8 25.34a5.39 5.39 0 0 1 .6.25 10.48 10.48 0 0 0 1.19-3.59 13.08 13.08 0 0 0 -.11-3.28 14 14 0 0 1 -.2-2.5l-.21-.82a8.64 8.64 0 0 1 -.48-4c.17-.87.71-2 1.82-1.87a1.82 1.82 0 0 0 -1.31-.36 1.44 1.44 0 0 0 -.89.55c-1.23 1.65-.57 4.47-.15 6.19a16.18 16.18 0 0 1 .6 3.46 18 18 0 0 1 -.86 6.05z" fill="#fff"/><path d="m26.55 25.66.35.2a11.13 11.13 0 0 0 1.23-3.86 12.66 12.66 0 0 0 -.19-3.47 16.59 16.59 0 0 1 -.25-2.38c0-1.2.4-3 2.1-2.43a1.43 1.43 0 0 0 -.82-.18c-1.29 0-1.53 1.9-1.53 2.88a17.28 17.28 0 0 0 .2 2.21 16.77 16.77 0 0 1 .18 2.22 8.13 8.13 0 0 1 -.07 1.1 10.67 10.67 0 0 1 -1.2 3.67z" fill="#ffcb00"/><path d="m27 26a5.1 5.1 0 0 1 .73.57 8.27 8.27 0 0 0 .95-2 13.2 13.2 0 0 0 .49-3.09c0-.34.05-.68.08-1-.13-1.93-.61-3.64-.53-4.94.08-1.1.41-1.32 1.48-1.3-1.72-1.25-2.38.73-2.38 2a16.57 16.57 0 0 0 .24 2.36 12.93 12.93 0 0 1 .19 3.51 11.24 11.24 0 0 1 -1.25 3.89z" fill="#fff"/><path d="m27.89 26.63.27.29a8.14 8.14 0 0 0 1.06-2.22 12.91 12.91 0 0 0 .43-3.41 3.79 3.79 0 0 1 .45-2.29 1 1 0 0 1 1.08-.28.8.8 0 0 0 -.63-.09 1.57 1.57 0 0 0 -1 1.32c-.07.51-.11 1-.14 1.54a13.34 13.34 0 0 1 -.49 3.12 8.53 8.53 0 0 1 -1 2.05z" fill="#ffcb00"/><path d="m28.28 27.05a6.44 6.44 0 0 1 .59.88 24.24 24.24 0 0 0 1.58-3.74 13.79 13.79 0 0 0 .18-2.43c0-.24 0-.46 0-.68 0-.75-.12-1.81.83-2.06a.88.88 0 0 0 -1.22.05 3.7 3.7 0 0 0 -.42 2.22 12.88 12.88 0 0 1 -.44 3.46 8.39 8.39 0 0 1 -1.09 2.3z" fill="#fff"/><path d="m29 28.11a2.41 2.41 0 0 1 .15.33l.22-.35a12 12 0 0 0 1.14-3.09c.12-.57.55-1.83 1.45-1.41-.9-.68-1.51 1-1.65 1.45a13 13 0 0 1 -1.31 3.07z" fill="#ffcb00"/><path d="m29.19 28.62a5.77 5.77 0 0 1 .27 1 7.37 7.37 0 0 0 1.57-3 7.83 7.83 0 0 0 .14-.9c.08-.67.06-1.93 1-1.77-.78-1.14-1.39.4-1.53 1a12.27 12.27 0 0 1 -1.2 3.17c-.08.15-.18.3-.28.45z" fill="#fff"/><path d="m20.26 34.63a5.52 5.52 0 0 1 .74-8.63c.2-.9.44-1.81.62-2.72a4.37 4.37 0 0 1 -3.89-3c-.89-1.8-1.36-3.47-2.83-5a17.94 17.94 0 0 0 -1.51-1.27s0-.32-.08-.7-.09-.56-.44-.73a1 1 0 0 0 -.93 0 2.49 2.49 0 0 0 -.66.62s-.4-.06-.86-.08a3.05 3.05 0 0 0 -2.87.88 1.51 1.51 0 0 1 -1.11.69l-.41.1c-.34.12-.61.5-.93.7s-.66.34-.66.64.08.67.26.77.17.07.21 0 .25-.35.24-.5a.65.65 0 0 1 -.15.6c-.07.11-.24 0-.31 0a1 1 0 0 0 .15.47.92.92 0 0 0 .36.37c0 .27.21.4.41.54a1.18 1.18 0 0 1 -.07-.45s0 0 0-.05h.07a.21.21 0 0 0 .25.14.24.24 0 0 0 .19-.25.11.11 0 0 0 0-.05.23.23 0 0 0 .46-.06.28.28 0 0 0 0-.09c.84-.05 1.27.9.44 1.32a1.17 1.17 0 0 1 -.58.05 1.66 1.66 0 0 0 -.37.09l-.43-.32.13.45s-.09.05-.09.1 0 .12.23.28a1.26 1.26 0 0 1 .23.24.8.8 0 0 0 .3.27 1.29 1.29 0 0 0 1 0 1.84 1.84 0 0 0 .69-.4 1 1 0 0 1 .59-.32 2.37 2.37 0 0 1 1.76 1.17 4.78 4.78 0 0 1 .81 2.21 11.13 11.13 0 0 1 .23 3.54 15.78 15.78 0 0 0 0 3c.21 2.87 1.09 4.33 3.81 5.45a4.85 4.85 0 0 1 1.23-5c-1.45 1.65-1.13 4.62-.82 5.47a5.86 5.86 0 0 1 0 1.51c-.07.29-.55 1.86-1 3.39l-.67 2.42c-.32 1.1-.65 2-1.32 2.33a1.75 1.75 0 0 1 -1.47-.19 2.24 2.24 0 0 0 -.9-.31c-1.11-.27-2.6.23-2.72 1.48a.38.38 0 0 1 .41.2 1.15 1.15 0 0 1 1.55-.86c-.33.07-1.17-.16-1.39 1 .29.08.38.17.44.43.29-.76 1.19-.63 1.66-.49-.5 0-1.31 0-1.58.7a.61.61 0 0 1 .52.42c.74.06 1.24.43 2 .22.24-.06.49-.12.75-.16a4 4 0 0 0 2.8-1c.81-.88.73-1.17.73-1.17l.14-.07s.15.24.72.13a.94.94 0 0 0 .53-.22.79.79 0 0 1 -.57-.24.62.62 0 0 1 -.15-.45 3.45 3.45 0 0 1 .37-1.28c.11-.21.57-1 1.11-2 .75-1.31 1.59-2.79 1.72-3.08l.06-.13a5 5 0 0 0 .5-2 2.23 2.23 0 0 1 .3-1.1zm-11.43-19.87a.5.5 0 0 1 0-.12.43.43 0 0 1 0 0 .31.31 0 0 0 .33.3.31.31 0 0 0 .26-.14.29.29 0 0 1 -.29.22.31.31 0 0 1 -.31-.31zm.83 0a.28.28 0 0 1 .07.17c0 .21-.26.38-.58.38s-.58-.17-.58-.38a.3.3 0 0 1 0-.16.53.53 0 0 0 .52.51.52.52 0 0 0 .52-.52zm-1.3.13a.73.73 0 0 1 .79-.55.85.85 0 0 1 .68.31l.59.27v.11a.8.8 0 0 0 -.42-.03l-.13.11a.78.78 0 0 1 -.75.43 1.28 1.28 0 0 1 -.34-.06l-.37-.06h-.32l-.09-.29a.69.69 0 0 0 .27-.13.35.35 0 0 0 .09-.11zm3.45-2.05a.6.6 0 0 1 1 .15c.11.31.17.92 0 1.09a1.62 1.62 0 0 0 -.83.05c.27-.42.79.11.67-.85a.56.56 0 0 0 -.86-.44zm1.6 3.59a2.34 2.34 0 0 1 -.95 2.68 3.26 3.26 0 0 1 -2.33-.18 4.37 4.37 0 0 0 2.27 0 2.41 2.41 0 0 0 1-2.48z" fill="#fff"/><path d="m1.05 32.9a2.17 2.17 0 0 0 .63 1.6c0-.17.3-.44.44-.38s0-.11 0-.17a1.57 1.57 0 0 1 -.12-1.51 2.18 2.18 0 0 0 .25 1.56c.06-.17.22-.45.5-.33.24-.41 0-1.3.07-1.55.19-.88 1.23-1 2-.94l.08.16a.72.72 0 0 0 -.18.57c0 .41.17.49.17.49a.79.79 0 0 1 .54-.68 2.18 2.18 0 0 1 1.24.28c.24.1 3.39 1.89 4.92 2.59a3.32 3.32 0 0 0 3.11 0 5 5 0 0 1 -3.37-4.59 7.61 7.61 0 0 1 -1.63-.12 23.85 23.85 0 0 0 -4.53-.78 5.61 5.61 0 0 0 -3.13.6 4.74 4.74 0 0 0 -2 3c-.04.47.24 2.3 1.12 2.22.08-.22.16-.35.33-.36a1.81 1.81 0 0 1 -.44-1.66z" fill="#fff"/><path d="m23 36a5.47 5.47 0 0 1 -2.57-1.24 2 2 0 0 0 -.27 1 2.5 2.5 0 0 1 0 .4 17 17 0 0 0 2.84-.16z" fill="#fff"/><path d="m20.66 30.82a3.29 3.29 0 0 0 .84 2 .69.69 0 0 1 .11-.93c.18-.19 1.55-1.11 1.88-.78s-.57 1.66-.78 1.87a.75.75 0 0 1 -1 0 3.44 3.44 0 0 0 2.07.9.72.72 0 0 1 -.55-.73c0-.25.31-1.88.78-1.88s.78 1.63.78 1.88a.72.72 0 0 1 -.56.73 3.37 3.37 0 0 0 2-.8.72.72 0 0 1 -.89-.15c-.18-.17-1.11-1.55-.78-1.87s1.7.6 1.88.78a.72.72 0 0 1 .14.89 3.3 3.3 0 0 0 .81-1.93.73.73 0 0 1 -.74.52c-.25 0-1.88-.32-1.88-.78s1.64-.78 1.88-.78a.73.73 0 0 1 .74.53 3.32 3.32 0 0 0 -.8-1.93.73.73 0 0 1 .08.33.79.79 0 0 1 -.23.55c-.22.23-1.56 1.11-1.88.78s.6-1.7.78-1.88a.76.76 0 0 1 .86-.14 3.36 3.36 0 0 0 -1.94-.81.74.74 0 0 1 .53.74c0 .24-.31 1.88-.78 1.88s-.78-1.57-.78-1.88a.74.74 0 0 1 .53-.74 3.39 3.39 0 0 0 -2 .84.69.69 0 0 1 .92.11c.17.17 1.11 1.55.78 1.88s-1.71-.6-1.88-.78a.74.74 0 0 1 -.06-1 3.26 3.26 0 0 0 -.89 2 .72.72 0 0 1 .74-.54c.24 0 1.87.31 1.87.78s-1.62.78-1.87.78a.72.72 0 0 1 -.74-.53zm2.79-.25a.56.56 0 1 1 .56.56.56.56 0 0 1 -.56-.56z" fill="#ffcb00"/><path d="m25.42 32.85a.62.62 0 0 0 .88-.85c-.18-.18-1.45-1-1.66-.78s.61 1.48.78 1.65zm-.52-2.28c0 .29 1.48.62 1.72.62a.62.62 0 1 0 0-1.24c-.24.05-1.72.33-1.72.62zm.52-2.29c-.18.18-1 1.45-.78 1.66s1.48-.59 1.66-.78a.59.59 0 0 0 .18-.44.62.62 0 0 0 -1.06-.44zm-2-.32c0 .26.32 1.72.63 1.72s.62-1.47.62-1.72a.63.63 0 0 0 -1.29.04zm-1.66 1.2c.17.18 1.45 1 1.66.78s-.61-1.48-.78-1.66c-.64-.6-1.45.35-.92.88zm1.4 1.41c0-.29-1.48-.62-1.72-.62a.62.62 0 1 0 0 1.24c.2 0 1.68-.33 1.68-.62zm.26.63c-.21-.21-1.48.6-1.66.78-.61.61.37 1.39.88.87.13-.17.94-1.45.74-1.65zm1.25 2c0-.24-.33-1.72-.62-1.72s-.63 1.48-.63 1.72a.63.63 0 0 0 1.21-.02zm-1-2.61a.41.41 0 1 0 .41-.41.42.42 0 0 0 -.48.39z" fill="#fff"/></g></svg>