<svg xmlns="http://www.w3.org/2000/svg" xmlns:xlink="http://www.w3.org/1999/xlink" viewBox="0 0 46.56 58"><defs><clipPath id="clip-path"><path d="M5,5V44.56A1.41,1.41,0,0,0,6.41,46H40.16a1.41,1.41,0,0,0,1.4-1.41V5Z" fill="none"/></clipPath><clipPath id="clip-path-2"><path d="M41.56,5V44.56A1.41,1.41,0,0,1,40.16,46H23.28V5Z" fill="none"/></clipPath><clipPath id="clip-path-3"><path d="M14.84,24.88a1.42,1.42,0,0,1-1.38-1.13L14.84,21l1.38,2.76A1.42,1.42,0,0,1,14.84,24.88Zm1.81-6.57H14.84a3.27,3.27,0,0,1-1.59-.41l-2.63,5.24v.33a4.22,4.22,0,1,0,8.44,0v-.33Z" fill="none"/></clipPath><clipPath id="clip-path-4"><path d="M31.72,24.88a1.42,1.42,0,0,1-1.38-1.13L31.72,21l1.38,2.76A1.42,1.42,0,0,1,31.72,24.88Zm1.6-7a3.34,3.34,0,0,1-1.6.41H29.91L27.5,23.14v.33a4.22,4.22,0,0,0,8.44,0v-.33Z" fill="none"/></clipPath><clipPath id="clip-path-5"><path d="M35.94,15a4.23,4.23,0,0,1-4.22,4.22h-7v9.84H21.88V19.25h-7A4.23,4.23,0,0,1,10.62,15h2.82a1.41,1.41,0,0,0,1.4,1.41h7V12.22h2.81v4.22h7A1.41,1.41,0,0,0,33.12,15Z" fill="none"/></clipPath><clipPath id="clip-path-6"><path d="M35.94,15a4.23,4.23,0,0,1-4.22,4.22h-7v9.84H23.28V12.22h1.41v4.22h7A1.41,1.41,0,0,0,33.12,15Z" fill="none"/></clipPath><clipPath id="clip-path-7"><polygon points="38.75 47.38 36.22 48.78 38.75 50.19 41.56 50.19 41.56 53 5 53 5 44.56 41.56 44.56 41.56 47.38 38.75 47.38" fill="none"/></clipPath><clipPath id="clip-path-8"><polygon points="38.75 47.38 36.22 48.78 38.75 50.19 41.56 50.19 41.56 53 23.28 53 23.28 44.56 41.56 44.56 41.56 47.38 38.75 47.38" fill="none"/></clipPath><clipPath id="clip-path-9"><rect x="7.81" y="47.38" width="30.94" height="2.81" fill="none"/></clipPath><clipPath id="clip-path-10"><rect x="23.28" y="47.38" width="15.47" height="2.81" fill="none"/></clipPath><clipPath id="clip-path-11"><rect x="19.06" y="27.69" width="8.44" height="9.84" fill="none"/></clipPath><clipPath id="clip-path-12"><rect x="23.28" y="27.69" width="4.22" height="9.84" fill="none"/></clipPath><clipPath id="clip-path-13"><rect x="16.25" y="36.13" width="14.06" height="2.81" fill="none"/></clipPath><clipPath id="clip-path-14"><rect x="23.28" y="36.13" width="7.03" height="2.81" fill="none"/></clipPath></defs><title>icon1</title><g id="Layer_2" data-name="Layer 2"><g id="Layer_1-2" data-name="Layer 1"><g clip-path="url(#clip-path)"><rect width="46.56" height="50.97" fill="#5a5f64"/></g><g clip-path="url(#clip-path-2)"><rect x="18.28" width="28.28" height="50.97" fill="#4b5055"/></g><g clip-path="url(#clip-path-3)"><rect x="5.63" y="12.9" width="18.44" height="19.79" fill="#f4d844"/></g><g clip-path="url(#clip-path-4)"><rect x="22.5" y="12.9" width="18.44" height="19.79" fill="#ecbd2c"/></g><g clip-path="url(#clip-path-5)"><rect x="5.63" y="7.22" width="35.31" height="26.88" fill="#ecbd2c"/></g><g clip-path="url(#clip-path-6)"><rect x="18.28" y="7.22" width="22.66" height="26.88" fill="#e58f22"/></g><g clip-path="url(#clip-path-7)"><rect y="39.56" width="46.56" height="18.44" fill="#4b5055"/></g><g clip-path="url(#clip-path-8)"><rect x="18.28" y="39.56" width="28.28" height="18.44" fill="#373c41"/></g><g clip-path="url(#clip-path-9)"><rect x="2.81" y="42.38" width="40.94" height="12.81" fill="#e8ded8"/></g><g clip-path="url(#clip-path-10)"><rect x="18.28" y="42.38" width="25.47" height="12.81" fill="#d9cfca"/></g><g clip-path="url(#clip-path-11)"><rect x="14.06" y="22.69" width="18.44" height="19.84" fill="#f4d844"/></g><g clip-path="url(#clip-path-12)"><rect x="18.28" y="22.69" width="14.22" height="19.84" fill="#ecbd2c"/></g><g clip-path="url(#clip-path-13)"><rect x="11.25" y="31.13" width="24.06" height="12.81" fill="#ecbd2c"/></g><g clip-path="url(#clip-path-14)"><rect x="18.28" y="31.13" width="17.03" height="12.81" fill="#e58f22"/></g></g></g></svg>