<svg xmlns="http://www.w3.org/2000/svg" viewBox="0 0 36.56 48"><title>icon3</title><g id="Layer_2" data-name="Layer 2"><g id="Capa_1" data-name="Capa 1"><path d="M33.75,12.84V1.41H2.81V12.84a11.27,11.27,0,0,0,8.44,10.9v2.12A11.26,11.26,0,0,0,2.81,36.75v9.84H33.75V36.75a11.26,11.26,0,0,0-8.44-10.89V23.74a11.28,11.28,0,0,0,8.44-10.9Z" fill="#f5efeb"/><path d="M25.31,23.74v2.12a11.26,11.26,0,0,1,8.44,10.89v9.84H18.28V1.41H33.75V12.84A11.28,11.28,0,0,1,25.31,23.74Z" fill="#dfd1cc"/><path d="M22.5,18.47a5.63,5.63,0,0,0,5.62-5.63v-1.4H8.44v1.4a5.63,5.63,0,0,0,5.62,5.63,2.82,2.82,0,0,1,2.82,2.81v7a2.82,2.82,0,0,1-2.82,2.81,5.63,5.63,0,0,0-5.62,5.63v5.63H28.12V36.75a5.63,5.63,0,0,0-5.62-5.63,2.81,2.81,0,0,1-2.81-2.81v-7A2.81,2.81,0,0,1,22.5,18.47Z" fill="#ffda2d"/><path d="M19.69,21.28v7a2.81,2.81,0,0,0,2.81,2.81,5.63,5.63,0,0,1,5.62,5.63v5.63H18.28V11.44h9.84v1.4a5.63,5.63,0,0,1-5.62,5.63A2.81,2.81,0,0,0,19.69,21.28Z" fill="#ff9100"/><path d="M0,0H36.56V2.81H0Z" fill="#575f64"/><path d="M18.28,0H36.56V2.81H18.28Z" fill="#474f54"/><path d="M0,45.19H36.56V48H0Z" fill="#575f64"/><path d="M18.28,45.19H36.56V48H18.28Z" fill="#474f54"/></g></g></svg>